HIERARCHY
ROOT hip
{
	OFFSET 0.000000 0.000000 0.000000
	CHANNELS 6 Xposition Yposition Zposition Xrotation Zrotation Yrotation 
	JOINT abdomen
	{
		OFFSET 0.000000 3.422050 0.000000
		CHANNELS 3 Xrotation Zrotation Yrotation 
		JOINT chest
		{
			OFFSET 0.000000 8.486693 -0.684411
			CHANNELS 3 Xrotation Zrotation Yrotation 
			JOINT neck
			{
				OFFSET 0.000000 10.266162 -0.273764
				CHANNELS 3 Xrotation Zrotation Yrotation 
				JOINT head
				{
					OFFSET 0.000000 3.148285 0.000000
					CHANNELS 3 Xrotation Zrotation Yrotation 
					End Site
					{
						OFFSET 0.000000 3.148289 0.000000
					}
				}
			}
			JOINT lCollar
			{
				OFFSET 3.422053 6.707223 -0.821293
				CHANNELS 3 Yrotation Zrotation Xrotation 
				JOINT lShldr
				{
					OFFSET 3.285171 0.000000 0.000000
					CHANNELS 3 Zrotation Yrotation Xrotation 
					JOINT lForeArm
					{
						OFFSET 10.129278 0.000000 0.000000
						CHANNELS 3 Yrotation Zrotation Xrotation 
						JOINT lHand
						{
							OFFSET 8.486692 0.000000 0.000000
							CHANNELS 3 Zrotation Yrotation Xrotation 
							End Site
							{
								OFFSET 4.106464 0.000000 0.000000
							}
						}
					}
				}
			}
			JOINT rCollar
			{
				OFFSET -3.558935 6.707223 -0.821293
				CHANNELS 3 Yrotation Zrotation Xrotation 
				JOINT rShldr
				{
					OFFSET -3.148289 0.000000 0.000000
					CHANNELS 3 Zrotation Yrotation Xrotation 
					JOINT rForeArm
					{
						OFFSET -10.266159 0.000000 0.000000
						CHANNELS 3 Yrotation Zrotation Xrotation 
						JOINT rHand
						{
							OFFSET -8.349810 0.000000 0.000000
							CHANNELS 3 Zrotation Yrotation Xrotation 
							End Site
							{
								OFFSET -4.106464 0.000000 0.000000
							}
						}
					}
				}
			}
		}
	}
	JOINT lThigh
	{
		OFFSET 5.338403 -1.642589 1.368821
		CHANNELS 3 Xrotation Zrotation Yrotation 
		JOINT lShin
		{
			OFFSET -2.053232 -20.121670 0.000000
			CHANNELS 3 Xrotation Zrotation Yrotation 
			JOINT lFoot
			{
				OFFSET 0.000000 -19.300380 -1.231939
				CHANNELS 3 Xrotation Yrotation Zrotation 
				End Site
				{
					OFFSET 0.000000 -2.463878 4.653993
				}
			}
		}
	}
	JOINT rThigh
	{
		OFFSET -5.338403 -1.642589 1.368821
		CHANNELS 3 Xrotation Zrotation Yrotation 
		JOINT rShin
		{
			OFFSET 2.053232 -20.121670 0.000000
			CHANNELS 3 Xrotation Zrotation Yrotation 
			JOINT rFoot
			{
				OFFSET 0.000000 -19.300380 -1.231939
				CHANNELS 3 Xrotation Yrotation Zrotation 
				End Site
				{
					OFFSET 0.000000 -2.463878 4.653993
				}
			}
		}
	}
}
MOTION
Frames: 18
Frame Time: 0.049989
0.000000 5.996777 0.000000 -98.002960 0.000000 0.000000 19.749432 -0.094290 -0.079015 -19.238602 -0.060559 -0.935813 33.462952 0.000000 0.000000 -6.872595 0.000000 0.000000 7.299263 16.570438 2.479026 19.248386 -28.211340 -86.324654 -133.016846 4.596831 36.239395 -7.325625 -23.290560 -11.054725 -7.302869 -16.574039 2.478291 -19.247828 28.206516 -86.322556 132.987335 -4.607988 36.241737 7.322171 23.286667 -11.055592 12.979889 42.525696 42.669319 60.258190 32.835739 3.543105 0.000000 0.000000 -11.895801 12.983911 -42.528652 -42.675793 61.195587 -32.834511 -3.548276 0.000000 0.000000 11.892273 
0.000000 5.996777 0.000000 -98.002960 0.000000 0.000000 19.216316 -0.094361 -0.079007 -18.439283 -0.060568 -0.935901 33.929565 0.000000 0.000000 -5.741106 0.000000 0.000000 7.299263 16.570438 2.479026 19.248386 -28.211340 -86.324654 -133.016846 4.596831 36.239395 -7.325625 -23.290560 -11.054725 -7.302869 -16.574039 2.478291 -19.247828 28.206516 -86.322556 132.987335 -4.607988 36.241737 7.322171 23.286667 -11.055592 12.979889 42.525696 42.669319 60.724796 32.835815 3.543033 0.000000 0.000000 -11.895801 12.983911 -42.528652 -42.675793 61.595448 -32.834763 -3.548228 0.000000 0.000000 11.892273 
0.000000 5.996777 0.000000 -98.002960 0.000000 0.000000 18.683079 -0.094432 -0.078997 -17.639532 -0.060576 -0.935988 34.396263 0.000000 0.000000 -4.608399 0.000000 0.000000 7.299263 16.570438 2.479026 19.248386 -28.211340 -86.324654 -133.016846 4.596831 36.239395 -7.325625 -23.290560 -11.054725 -7.302869 -16.574039 2.478291 -19.247828 28.206516 -86.322556 132.987335 -4.607988 36.241737 7.322171 23.286667 -11.055592 12.979889 42.525696 42.669319 61.191517 32.835915 3.542962 0.000000 0.000000 -11.895801 12.983911 -42.528652 -42.675793 61.995354 -32.835003 -3.548184 0.000000 0.000000 11.892273 
0.000000 5.996777 0.000000 -98.002960 0.000000 0.000000 18.149733 -0.094503 -0.078988 -16.839434 -0.060583 -0.936076 34.863029 0.000000 0.000000 -3.474691 0.000000 0.000000 7.299263 16.570438 2.479026 19.248386 -28.211340 -86.324654 -133.016846 4.596831 36.239395 -7.325625 -23.290560 -11.054725 -7.302869 -16.574039 2.478291 -19.247828 28.206516 -86.322556 132.987335 -4.607988 36.241737 7.322170 23.286665 -11.055591 12.979889 42.525696 42.669319 61.658291 32.836002 3.542891 0.000000 0.000000 -11.895801 12.983911 -42.528652 -42.675793 62.395317 -32.835262 -3.548146 0.000000 0.000000 11.892273 
0.000000 5.996777 0.000000 -98.002960 0.000000 0.000000 17.616308 -0.094574 -0.078977 -16.039063 -0.060589 -0.936164 35.329838 0.000000 0.000000 -2.340205 0.000000 0.000000 7.299263 16.570438 2.479026 19.248386 -28.211340 -86.324654 -133.016846 4.596831 36.239395 -7.325625 -23.290560 -11.054725 -7.302869 -16.574039 2.478291 -19.247828 28.206516 -86.322556 132.987335 -4.607988 36.241737 7.322171 23.286667 -11.055592 12.979889 42.525696 42.669319 62.125118 32.836090 3.542824 0.000000 0.000000 -11.895801 12.983911 -42.528652 -42.675793 62.795311 -32.835522 -3.548107 0.000000 0.000000 11.892273 
0.000000 5.996777 0.000000 -98.002960 0.000000 0.000000 17.082827 -0.094644 -0.078966 -15.238497 -0.060594 -0.936253 35.796696 0.000000 0.000000 -1.205162 0.000000 0.000000 7.299263 16.570438 2.479026 19.248386 -28.211340 -86.324654 -133.016846 4.596831 36.239395 -7.325625 -23.290560 -11.054725 -7.302869 -16.574039 2.478291 -19.247828 28.206516 -86.322556 132.987335 -4.607988 36.241737 7.322172 23.286669 -11.055593 12.979889 42.525696 42.669319 62.592003 32.836189 3.542756 0.000000 0.000000 -11.895801 12.983911 -42.528652 -42.675793 63.195335 -32.835770 -3.548070 0.000000 0.000000 11.892273 
0.000000 5.996777 0.000000 -98.002960 0.000000 0.000000 16.549313 -0.094715 -0.078955 -14.437809 -0.060597 -0.936341 36.263577 0.000000 0.000000 -0.069785 0.000000 0.000000 7.299263 16.570438 2.479026 19.248386 -28.211340 -86.324654 -133.016846 4.596831 36.239395 -7.325625 -23.290560 -11.054725 -7.302869 -16.574039 2.478291 -19.247828 28.206516 -86.322556 132.987335 -4.607988 36.241737 7.322170 23.286665 -11.055591 12.979889 42.525696 42.669319 63.058887 32.836273 3.542690 0.000000 0.000000 -11.895801 12.983911 -42.528652 -42.675793 63.595360 -32.836021 -3.548034 0.000000 0.000000 11.892273 
0.000000 5.996777 0.000000 -98.002960 0.000000 0.000000 16.015787 -0.094786 -0.078942 -13.637084 -0.060599 -0.936429 36.730465 0.000000 0.000000 1.065704 0.000000 0.000000 7.299263 16.570438 2.479026 19.248386 -28.211340 -86.324654 -133.016846 4.596831 36.239395 -7.325625 -23.290560 -11.054725 -7.302869 -16.574039 2.478291 -19.247828 28.206516 -86.322556 132.987335 -4.607988 36.241737 7.322171 23.286667 -11.055592 12.979889 42.525696 42.669319 63.525799 32.836372 3.542623 0.000000 0.000000 -11.895801 12.983911 -42.528652 -42.675793 63.995403 -32.836273 -3.548002 0.000000 0.000000 11.892273 
0.000000 5.996777 0.000000 -98.002960 0.000000 0.000000 15.482268 -0.094856 -0.078929 -12.836399 -0.060600 -0.936517 37.197350 0.000000 0.000000 2.201081 0.000000 0.000000 7.299263 16.570438 2.479026 19.248386 -28.211340 -86.324654 -133.016846 4.596831 36.239395 -7.325625 -23.290560 -11.054725 -7.302869 -16.574039 2.478291 -19.247828 28.206516 -86.322556 132.987335 -4.607988 36.241737 7.322172 23.286669 -11.055593 12.979889 42.525696 42.669319 63.992699 32.836468 3.542557 0.000000 0.000000 -11.895801 12.983911 -42.528652 -42.675793 64.395439 -32.836533 -3.547972 0.000000 0.000000 11.892273 
0.000000 5.996777 0.000000 -98.002960 0.000000 0.000000 14.948785 -0.094926 -0.078916 -12.035829 -0.060599 -0.936606 37.664204 0.000000 0.000000 3.336123 0.000000 0.000000 7.299263 16.570438 2.479026 19.248386 -28.211340 -86.324654 -133.016846 4.596831 36.239395 -7.325625 -23.290560 -11.054725 -7.302869 -16.574039 2.478291 -19.247828 28.206516 -86.322556 132.987335 -4.607988 36.241737 7.322170 23.286665 -11.055591 12.979889 42.525696 42.669319 64.459557 32.836548 3.542490 0.000000 0.000000 -11.895801 12.983911 -42.528652 -42.675793 64.795471 -32.836796 -3.547943 0.000000 0.000000 11.892273 
0.000000 5.996777 0.000000 -98.002960 0.000000 0.000000 14.415360 -0.094997 -0.078901 -11.235458 -0.060598 -0.936694 38.131035 0.000000 0.000000 4.470610 0.000000 0.000000 7.299263 16.570438 2.479026 19.248386 -28.211340 -86.324654 -133.016846 4.596831 36.239395 -7.325625 -23.290560 -11.054725 -7.302869 -16.574039 2.478291 -19.247828 28.206516 -86.322556 132.987335 -4.607988 36.241737 7.322171 23.286667 -11.055592 12.979889 42.525696 42.669319 64.926399 32.836651 3.542426 0.000000 0.000000 -11.895801 12.983911 -42.528652 -42.675793 65.195473 -32.837044 -3.547916 0.000000 0.000000 11.892273 
0.000000 5.996777 0.000000 -98.002960 0.000000 0.000000 13.882020 -0.095067 -0.078887 -10.435357 -0.060595 -0.936782 38.597790 0.000000 0.000000 5.604318 0.000000 0.000000 7.299263 16.570438 2.479026 19.248386 -28.211340 -86.324654 -133.016846 4.596831 36.239395 -7.325625 -23.290560 -11.054725 -7.302869 -16.574039 2.478291 -19.247828 28.206516 -86.322556 132.987335 -4.607988 36.241737 7.322172 23.286669 -11.055593 12.979889 42.525696 42.669319 65.393181 32.836746 3.542366 0.000000 0.000000 -11.895801 12.983911 -42.528652 -42.675793 65.595451 -32.837307 -3.547894 0.000000 0.000000 11.892273 
0.000000 5.996777 0.000000 -98.002960 0.000000 0.000000 13.348778 -0.095137 -0.078871 -9.635610 -0.060591 -0.936870 39.064484 0.000000 0.000000 6.737026 0.000000 0.000000 7.299263 16.570438 2.479026 19.248386 -28.211340 -86.324654 -133.016846 4.596831 36.239395 -7.325625 -23.290560 -11.054725 -7.302869 -16.574039 2.478291 -19.247828 28.206516 -86.322556 132.987335 -4.607988 36.241737 7.322170 23.286665 -11.055591 12.979889 42.525696 42.669319 65.859886 32.836834 3.542304 0.000000 0.000000 -11.895801 12.983911 -42.528652 -42.675793 65.995369 -32.837559 -3.547869 0.000000 0.000000 11.892273 
0.000000 5.996777 0.000000 -98.002960 0.000000 0.000000 12.815666 -0.095206 -0.078855 -8.836289 -0.060585 -0.936958 39.531094 0.000000 0.000000 7.868514 0.000000 0.000000 7.299263 16.570438 2.479026 19.248386 -28.211340 -86.324654 -133.016846 4.596831 36.239395 -7.325625 -23.290560 -11.054725 -7.302869 -16.574039 2.478291 -19.247828 28.206516 -86.322556 132.987335 -4.607988 36.241737 7.322171 23.286669 -11.055592 12.979889 42.525696 42.669319 66.326523 32.836933 3.542239 0.000000 0.000000 -11.895801 12.983911 -42.528652 -42.675793 66.395248 -32.837822 -3.547853 0.000000 0.000000 11.892273 
0.000000 5.996777 0.000000 -98.002960 0.000000 0.000000 12.282707 -0.095276 -0.078838 -8.037477 -0.060579 -0.937046 39.997601 0.000000 0.000000 8.998567 0.000000 0.000000 7.299263 16.570438 2.479026 19.248386 -28.211340 -86.324654 -133.016846 4.596831 36.239395 -7.325625 -23.290560 -11.054725 -7.302869 -16.574039 2.478291 -19.247828 28.206516 -86.322556 132.987335 -4.607988 36.241737 7.322171 23.286669 -11.055593 12.979889 42.525696 42.669319 66.793053 32.837029 3.542182 0.000000 0.000000 -11.895801 12.983911 -42.528652 -42.675793 66.795052 -32.838066 -3.547834 0.000000 0.000000 11.892273 
0.000000 5.996777 0.000000 -98.002960 0.000000 0.000000 12.815666 -0.095206 -0.078855 -8.836289 -0.060585 -0.936958 39.531094 0.000000 0.000000 7.868514 0.000000 0.000000 7.299263 16.570438 2.479026 19.248386 -28.211340 -86.324654 -133.016846 4.596831 36.239395 -7.325625 -23.290560 -11.054725 -7.302869 -16.574039 2.478291 -19.247828 28.206516 -86.322556 132.987335 -4.607988 36.241737 7.322171 23.286667 -11.055592 12.979889 42.525696 42.669319 66.326523 32.836933 3.542239 0.000000 0.000000 -11.895801 12.983912 -42.528656 -42.675793 66.395248 -32.837822 -3.547853 0.000000 0.000000 11.892273 
0.000000 5.996777 0.000000 -98.002960 0.000000 0.000000 13.348778 -0.095137 -0.078871 -9.635610 -0.060591 -0.936870 39.064484 0.000000 0.000000 6.737025 0.000000 0.000000 7.299263 16.570438 2.479026 19.248386 -28.211340 -86.324654 -133.016846 4.596831 36.239395 -7.325625 -23.290558 -11.054725 -7.302869 -16.574039 2.478291 -19.247828 28.206516 -86.322556 132.987335 -4.607988 36.241737 7.322171 23.286665 -11.055592 12.979889 42.525696 42.669319 65.859886 32.836834 3.542304 0.000000 0.000000 -11.895801 12.983908 -42.528648 -42.675793 65.995369 -32.837559 -3.547868 0.000000 0.000000 11.892273 
0.000000 5.996777 0.000000 -98.002960 0.000000 0.000000 13.882020 -0.095067 -0.078887 -10.435358 -0.060595 -0.936782 38.597790 0.000000 0.000000 5.604319 0.000000 0.000000 7.299263 16.570438 2.479026 19.248386 -28.211340 -86.324654 -133.016846 4.596831 36.239395 -7.325625 -23.290560 -11.054725 -7.302869 -16.574039 2.478291 -19.247828 28.206516 -86.322556 132.987335 -4.607988 36.241737 7.322172 23.286669 -11.055593 12.979889 42.525696 42.669319 65.393181 32.836746 3.542364 0.000000 0.000000 -11.895801 12.983911 -42.528652 -42.675793 65.595451 -32.837307 -3.547894 0.000000 0.000000 11.892273 
